<svg xmlns="http://www.w3.org/2000/svg" viewBox="0 0 109 109"><defs><style>.cls-1,.cls-2,.cls-4{fill:#00bd93;}.cls-1,.cls-3{opacity:0.32;}.cls-2{opacity:0.24;}.cls-5,.cls-6{fill:none;stroke:#00bd93;}.cls-5{stroke-linecap:round;stroke-linejoin:round;stroke-width:3px;}.cls-6{stroke-miterlimit:10;opacity:0;}</style></defs><title>01-feature-icon</title><g id="Layer_2" data-name="Layer 2"><g id="Layer_2-2" data-name="Layer 2"><path class="cls-1" d="M57.23,8A43.18,43.18,0,0,0,42,21c-11.91,16.58-7.17,36-6.33,39.25a23.21,23.21,0,0,1-6.36-9.83,22.88,22.88,0,0,1-1.12-7.09V8Z"/><path class="cls-2" d="M52.89,8A43.53,43.53,0,0,1,68.12,21.41C80,38.5,75.28,58.57,74.45,61.88a24,24,0,0,0,6.36-10.14,24.26,24.26,0,0,0,1.12-7.31V8Z"/><g class="cls-3"><path class="cls-4" d="M27.05,26.17A16.27,16.27,0,0,1,23.45,28a23.86,23.86,0,0,1-3.6,1.06l2.93-2.93a27.6,27.6,0,0,1,.55,4.59l0,1.93c0,.54.08,1.06.12,1.6a12.82,12.82,0,0,0,.76,3.14A5.54,5.54,0,0,0,25.17,39a4.74,4.74,0,0,0,.78.73c.3.25.74.47,1.11.75a6.17,6.17,0,0,1-1.18.71,4.4,4.4,0,0,1-1.47.34,5.88,5.88,0,0,1-3.05-.69,9,9,0,0,1-4.07-4.52,10.61,10.61,0,0,1-.8-2.88,11.8,11.8,0,0,1-.11-1.48c0-.43,0-.78,0-1.17a27.6,27.6,0,0,1,.55-4.59L17.15,25a2.27,2.27,0,0,1,2.68-1.77h0a23.86,23.86,0,0,1,3.6,1.06A16.27,16.27,0,0,1,27.05,26.17Z"/></g><path class="cls-5" d="M61.87,66.13v10.1H72.79v9.1h5.47v18.21H32.74V85.33h5.47v-9.1H49.13V66.13a23.49,23.49,0,0,1-3.78-.63A22.93,22.93,0,0,1,28.19,43.33V8H82.81V43.33A22.89,22.89,0,0,1,61.87,66.13Z"/><path class="cls-5" d="M19.09,25.26v7.32a9.07,9.07,0,0,0,9.07,9.07h0V47.1H26.3A18.13,18.13,0,0,1,8.17,29V16.15h20v9.1Z"/><g class="cls-3"><path class="cls-4" d="M83.95,26.17a16.28,16.28,0,0,1,3.6-1.87,23.86,23.86,0,0,1,3.6-1.06A2.27,2.27,0,0,1,93.84,25v0l.24,1.16a27.6,27.6,0,0,1,.55,4.59c0,.39,0,.74,0,1.17a11.8,11.8,0,0,1-.11,1.48,10.61,10.61,0,0,1-.8,2.88,9,9,0,0,1-4.07,4.52,5.88,5.88,0,0,1-3.05.69,4.4,4.4,0,0,1-1.47-.34,6.17,6.17,0,0,1-1.18-.71c.36-.28.8-.5,1.11-.75a4.74,4.74,0,0,0,.78-.73,5.54,5.54,0,0,0,.91-1.55,12.82,12.82,0,0,0,.76-3.14c0-.54.12-1.06.12-1.6l0-1.93a27.6,27.6,0,0,1,.55-4.59l2.93,2.93A23.86,23.86,0,0,1,87.55,28,16.27,16.27,0,0,1,83.95,26.17Z"/></g><path class="cls-5" d="M91.91,25.26v7.32a9.07,9.07,0,0,1-9.07,9.07h0V47.1H84.7A18.13,18.13,0,0,0,102.84,29V16.15h-20v9.1Z"/><rect class="cls-6" x="0.5" y="0.5" width="108" height="108"/><path class="cls-4" d="M62.47,36l-.84.82,1.31,7.65a.73.73,0,0,1-1.06.77L55,41.66l-6.87,3.62a.73.73,0,0,1-1-.42.69.69,0,0,1,0-.35l1.31-7.65-5.56-5.42a.74.74,0,0,1,.4-1.25l7.69-1.11.21-.42,3.23-6.55a.72.72,0,0,1,1.3,0l3.44,7,.52.08,7.16,1a.74.74,0,0,1,.41,1.25Z"/></g></g></svg>