<svg xmlns="http://www.w3.org/2000/svg" viewBox="0 0 109 109"><defs><style>.cls-1{fill:#00bd93;opacity:0.24;}.cls-2,.cls-4{fill:none;}.cls-2,.cls-3,.cls-4{stroke:#00bd93;}.cls-2,.cls-3{stroke-linecap:round;stroke-linejoin:round;stroke-width:3px;}.cls-3{fill:#fff;}.cls-4{stroke-miterlimit:10;opacity:0;}</style></defs><title>02-custom-icon</title><g id="Layer_2" data-name="Layer 2"><g id="Layer_2-2" data-name="Layer 2"><path class="cls-1" d="M67.41,103.31A119.37,119.37,0,0,0,89.91,72.45,120.74,120.74,0,0,0,102.8,18.6a18.58,18.58,0,0,1,.34,2,19.51,19.51,0,0,1,.11,2.1V83.88a19.43,19.43,0,0,1-19.43,19.43Z"/><path class="cls-2" d="M104.5,23.93V85.07A19.43,19.43,0,0,1,85.07,104.5H23.93A19.42,19.42,0,0,1,5,89.21a18.83,18.83,0,0,1-.45-4.14V23.93A19.43,19.43,0,0,1,23.93,4.5H85.07A19.43,19.43,0,0,1,104.5,23.93Z"/><path class="cls-1" d="M40.34,4.5A119.37,119.37,0,0,0,17.83,35.35,120.74,120.74,0,0,0,5,89.21a18.58,18.58,0,0,1-.34-2,19.51,19.51,0,0,1-.11-2.1V23.93A19.43,19.43,0,0,1,23.93,4.5Z"/><line class="cls-2" x1="18.01" y1="23.78" x2="90.99" y2="23.78"/><circle class="cls-1" cx="40.59" cy="25.33" r="9.26"/><circle class="cls-3" cx="38.83" cy="24.28" r="7.5"/><line class="cls-2" x1="18.01" y1="52.95" x2="90.99" y2="52.95"/><circle class="cls-1" cx="70.35" cy="54.5" r="9.26"/><circle class="cls-3" cx="68.59" cy="53.45" r="7.5"/><line class="cls-2" x1="18.01" y1="82.13" x2="90.99" y2="82.13"/><circle class="cls-1" cx="38.83" cy="83.67" r="9.26"/><circle class="cls-3" cx="37.08" cy="82.63" r="7.5"/><rect class="cls-4" x="0.5" y="0.5" width="108" height="108"/></g></g></svg>