<svg xmlns="http://www.w3.org/2000/svg" viewBox="0 0 109 109"><defs><style>.cls-1{fill:#00bd93;opacity:0.24;}.cls-2,.cls-4{fill:none;}.cls-2,.cls-3,.cls-4{stroke:#00bd93;}.cls-2,.cls-3{stroke-linecap:round;stroke-linejoin:round;stroke-width:3px;}.cls-3{fill:#fff;}.cls-4{stroke-miterlimit:10;opacity:0;}</style></defs><title>03-analytics-icon</title><g id="Layer_2" data-name="Layer 2"><g id="Layer_2-2" data-name="Layer 2"><path class="cls-1" d="M12.5,100.34V75.13a136.43,136.43,0,0,0,40.08-6.65C72,62.15,84.4,38.68,92.67,31.78V99.27Z"/><circle class="cls-1" cx="13.6" cy="58.95" r="7"/><circle class="cls-1" cx="54.5" cy="41.58" r="7"/><circle class="cls-1" cx="92.55" cy="14.65" r="7"/><line class="cls-2" x1="12.5" y1="71.27" x2="12.5" y2="100.34"/><line class="cls-2" x1="52.58" y1="54.58" x2="52.58" y2="100.34"/><line class="cls-2" x1="92.67" y1="27.35" x2="92.67" y2="100.34"/><polyline class="cls-2" points="11.27 57.58 53.85 40.92 90.83 12.99"/><circle class="cls-3" cx="11.26" cy="57.58" r="5.34"/><circle class="cls-3" cx="52.81" cy="39.92" r="5.34"/><circle class="cls-3" cx="90.84" cy="12.99" r="5.34"/><line class="cls-2" x1="7.45" y1="100.34" x2="98.67" y2="100.34"/><rect class="cls-4" x="0.5" y="0.5" width="108" height="108"/></g></g></svg>