<svg xmlns="http://www.w3.org/2000/svg" viewBox="0 0 109 109"><defs><style>.cls-1,.cls-4,.cls-5{fill:#00bd93;}.cls-1{opacity:0.24;}.cls-2{fill:#f4f4f4;}.cls-2,.cls-3,.cls-7{stroke:#00bd93;}.cls-2,.cls-3{stroke-linecap:round;stroke-linejoin:round;stroke-width:3px;}.cls-3,.cls-7{fill:none;}.cls-5{font-size:14px;font-family:Tahoma-Bold, Tahoma;font-weight:700;}.cls-6{opacity:0.32;}.cls-7{stroke-miterlimit:10;opacity:0;}</style></defs><title>04-message-24-7-icon</title><g id="Layer_2" data-name="Layer 2"><g id="Layer_2-2" data-name="Layer 2"><rect class="cls-1" x="28.83" y="30.69" width="62" height="41.5" rx="1" ry="1"/><rect class="cls-2" x="23.5" y="27.92" width="62" height="41.5"/><polygon class="cls-3" points="33.07 81.08 33.07 69.42 43 69.42 33.07 81.08"/><polygon class="cls-1" points="32.17 82.5 32.17 69.42 54 69.42 32.17 82.5"/><path class="cls-3" d="M34.9,99A48.58,48.58,0,1,1,88.85,88.85"/><polygon class="cls-4" points="42.27 103.79 31.2 103.62 36.88 94.12 42.27 103.79"/><text class="cls-5" transform="translate(43.43 103.38) rotate(5.57)">2</text><text class="cls-5" transform="translate(53.55 104.24) rotate(-5.85)">4</text><text class="cls-5" transform="translate(63.31 102.99) rotate(-14.34)"> </text><text class="cls-5" transform="matrix(0.93, -0.38, 0.38, 0.93, 68.14, 101.84)">/</text><text class="cls-5" transform="translate(76.32 98.27) rotate(-30.25)"> </text><text class="cls-5" transform="translate(80.71 95.83) rotate(-38.68)">7</text><path class="cls-1" d="M50.31,27.92a58.41,58.41,0,0,0-24,41.5H23.5V27.92Z"/><line class="cls-3" x1="32.17" y1="41.42" x2="75.83" y2="41.42"/><line class="cls-3" x1="32.17" y1="48.67" x2="65.83" y2="48.67"/><line class="cls-3" x1="32.17" y1="55.92" x2="56.83" y2="55.92"/><path class="cls-1" d="M65.83,69.42H85.5V27.92A52.89,52.89,0,0,1,79.17,53.5,52.51,52.51,0,0,1,65.83,69.42Z"/><g class="cls-6"><path class="cls-4" d="M35.51,97.5A46.49,46.49,0,0,1,12.19,78.67a47.84,47.84,0,0,1-6-14.32,35.35,35.35,0,0,1-.76-3.85A36,36,0,0,1,5,56.6l-.12-2c0-.66,0-1.31,0-2,.06-1.31,0-2.64.16-3.94A48.22,48.22,0,0,1,9,33.43l.83-1.81a14.91,14.91,0,0,1,.9-1.78l2-3.44,2.34-3.23c.2-.27.39-.54.59-.8l.66-.75,1.32-1.5a50.78,50.78,0,0,1,12.47-9.94,52.49,52.49,0,0,1,15-5.41,49.68,49.68,0,0,1,31.2,4.35,48.66,48.66,0,0,1,26.32,52.61,46,46,0,0,1-15,26A48.45,48.45,0,0,0,99.33,61.22,47,47,0,0,0,93.7,33.78,48.62,48.62,0,0,0,85,22.83,43.47,43.47,0,0,0,73.51,15.1a41.7,41.7,0,0,0-13.25-3.83A23.69,23.69,0,0,0,56.82,11a25,25,0,0,0-3.46-.05c-1.15.07-2.31.11-3.46.2l-3.42.53a46.19,46.19,0,0,0-13,4.58,45.46,45.46,0,0,0-11,8.41l-1.19,1.27-.6.63c-.19.22-.35.46-.53.69L18.1,30l-1.86,2.95a11.85,11.85,0,0,0-.85,1.52L14.61,36c-.25.52-.56,1-.77,1.57l-.63,1.63a27,27,0,0,0-1.16,3.3c-.3,1.13-.69,2.24-.94,3.38l-.63,3.46A46.2,46.2,0,0,0,15.16,77,49.05,49.05,0,0,0,35.51,97.5Z"/></g><rect class="cls-7" x="0.5" y="0.5" width="108" height="108"/></g></g></svg>