<svg xmlns="http://www.w3.org/2000/svg" viewBox="0 0 109 109"><defs><style>.cls-1{fill:#00bd93;}.cls-1,.cls-4{opacity:0.24;}.cls-2,.cls-3,.cls-5{fill:none;stroke:#00bd93;}.cls-2,.cls-3{stroke-linecap:round;stroke-linejoin:round;stroke-width:3px;}.cls-3{stroke-dasharray:5.21 5.21;}.cls-5{stroke-miterlimit:10;opacity:0;}</style></defs><title>05-ticket-icon</title><g id="Layer_2" data-name="Layer 2"><g id="Layer_2-2" data-name="Layer 2"><path class="cls-1" d="M22.77,48.54a137.09,137.09,0,0,1,13.8,26.92,137,137,0,0,1,6.83,24.77l-5.33,4.94-9.26-10A11.22,11.22,0,0,0,13.55,78.75L2.75,67.12Z"/><path class="cls-1" d="M82.62,29.95a11.22,11.22,0,0,0,14.24,1.83l9.38,10.11L91,56c-2.54-6.51-5.45-13.33-8.79-20.37A317.47,317.47,0,0,0,67.09,7.39l3.84-3.56L81.85,15.6A11.22,11.22,0,0,0,82.62,29.95Z"/><path class="cls-2" d="M45.12,27.79,80.44,65.84,38.07,105.17l-9.26-10A11.22,11.22,0,0,0,13.55,78.75L2.75,67.12Z"/><path class="cls-2" d="M82.62,29.95a11.22,11.22,0,0,0,14.24,1.83l9.38,10.11-16.16,15L54.76,18.84l16.16-15L81.85,15.6A11.22,11.22,0,0,0,82.62,29.95Z"/><line class="cls-2" x1="49.94" y1="23.32" x2="51.64" y2="25.15"/><line class="cls-3" x1="55.19" y1="28.97" x2="81.79" y2="57.62"/><line class="cls-2" x1="83.56" y1="59.53" x2="85.26" y2="61.37"/><line class="cls-2" x1="27.8" y1="67.73" x2="51.45" y2="45.78"/><line class="cls-2" x1="33.56" y1="73.93" x2="53.91" y2="55.04"/><line class="cls-2" x1="39.33" y1="80.14" x2="56.04" y2="64.63"/><g class="cls-4"><line class="cls-2" x1="51.11" y1="22.23" x2="52.81" y2="24.06"/><line class="cls-3" x1="56.36" y1="27.88" x2="82.96" y2="56.53"/><line class="cls-2" x1="84.73" y1="58.44" x2="86.43" y2="60.28"/></g><rect class="cls-5" x="0.5" y="0.5" width="108" height="108"/></g></g></svg>