<svg xmlns="http://www.w3.org/2000/svg" viewBox="0 0 109 109"><defs><style>.cls-1,.cls-3,.cls-4{opacity:0.24;}.cls-2,.cls-4,.cls-6{fill:none;stroke:#00bd93;}.cls-2,.cls-4{stroke-linecap:round;stroke-linejoin:round;stroke-width:3px;}.cls-3,.cls-5{fill:#00bd93;}.cls-6{stroke-miterlimit:10;opacity:0;}</style></defs><title>06-surveys-icon</title><g id="Layer_2" data-name="Layer 2"><g id="Layer_2-2" data-name="Layer 2"><g class="cls-1"><rect class="cls-2" x="16.55" y="74.99" width="12.62" height="12.62"/><line class="cls-2" x1="37.45" y1="81.3" x2="72.45" y2="81.3"/></g><g class="cls-1"><rect class="cls-2" x="16.55" y="49.58" width="12.62" height="12.62"/><line class="cls-2" x1="37.45" y1="55.89" x2="72.45" y2="55.89"/></g><g class="cls-1"><rect class="cls-2" x="16.55" y="25.54" width="12.62" height="12.62"/><line class="cls-2" x1="37.45" y1="31.85" x2="72.45" y2="31.85"/><rect class="cls-2" x="19.48" y="28.47" width="6.75" height="6.75"/></g><polygon class="cls-3" points="94.24 24.99 98.31 35.21 90.17 35.21 94.24 24.99"/><rect class="cls-4" x="90.17" y="36.08" width="8.14" height="67.91"/><rect class="cls-4" x="90.17" y="90.95" width="8.14" height="3.96"/><line class="cls-4" x1="90.17" y1="51.61" x2="98.31" y2="51.61"/><polygon class="cls-4" points="94.24 24.99 98.31 35.21 90.17 35.21 94.24 24.99"/><path class="cls-3" d="M46.29,103.22a140.92,140.92,0,0,0,16-36.55,142.81,142.81,0,0,0,3-62.39H81.62v98.94Z"/><rect class="cls-2" x="7.39" y="4.28" width="74.23" height="98.94"/><rect class="cls-2" x="16.55" y="24.17" width="12.62" height="12.62"/><line class="cls-2" x1="37.45" y1="30.47" x2="72.45" y2="30.47"/><rect class="cls-5" x="19.48" y="27.1" width="6.75" height="6.75"/><rect class="cls-2" x="16.55" y="48.19" width="12.62" height="12.62"/><line class="cls-2" x1="37.45" y1="54.5" x2="72.45" y2="54.5"/><rect class="cls-2" x="16.55" y="72.22" width="12.62" height="12.62"/><line class="cls-2" x1="37.45" y1="78.53" x2="72.45" y2="78.53"/><rect class="cls-2" x="88.67" y="36.08" width="8.14" height="67.91"/><rect class="cls-2" x="88.67" y="90.95" width="8.14" height="3.96"/><line class="cls-2" x1="88.67" y1="51.61" x2="96.81" y2="51.61"/><polygon class="cls-2" points="92.74 24.99 96.81 35.21 88.67 35.21 92.74 24.99"/><polyline class="cls-2" points="96.81 103.99 101.54 103.99 101.54 80.24"/><rect class="cls-6" x="0.5" y="0.5" width="108" height="108"/></g></g></svg>