<svg xmlns="http://www.w3.org/2000/svg" viewBox="0 0 178.45 166.98"><defs><style>.cls-1{fill:#246ebb;}.cls-2{fill:#fff;}</style></defs><title>transactional-sms-logo_1</title><g id="Layer_2" data-name="Layer 2"><g id="Layer_1-2" data-name="Layer 1"><path class="cls-1" d="M158,121.41,13.79,141.2A12.14,12.14,0,0,1,.22,126.89l22.42-117A12.14,12.14,0,0,1,36.41.14L168.16,20.44A12.14,12.14,0,0,1,178.35,34l-9.94,77A12.14,12.14,0,0,1,158,121.41Z"/><polygon class="cls-1" points="23.5 166.99 32.44 133 74.03 133 23.5 166.99"/><path class="cls-2" d="M110.18,62.19a4.62,4.62,0,0,1,.69-4.55h0a4.61,4.61,0,1,0-7.22-5.72h0a4.61,4.61,0,0,1-4.27,1.72C88.19,52,80.71,69.36,70.88,67.6a2.58,2.58,0,0,0-2.5.9L67,70.21l34.45,27.26,1.35-1.71a2.58,2.58,0,0,0,.31-2.64C99.17,84,114.32,72.7,110.18,62.19ZM85.64,94.11a7.62,7.62,0,0,1-10.41,1.26,7.75,7.75,0,0,1-1.28-10.52Z"/></g></g></svg>